<svg xmlns="http://www.w3.org/2000/svg" enable-background="new 0 0 24 24" viewBox="0 0 24 24"><path d="M12.99,10.284c-0.877,0.398-1.524,0.293-2.312,0.756c-0.787,0.461-1.184,1.103-1.184,1.103l-3.204,8.362c-0.347,0.944,0.168,2.05,1.121,2.42c0.957,0.369,2.034-0.12,2.405-1.056l5.012-13.094C14.827,8.775,13.866,9.884,12.99,10.284L12.99,10.284z M8.901,16.949v0.009c-0.152,0.068-0.333,0-0.396-0.155c-0.07-0.152,0-0.334,0.153-0.397c0.153-0.071,0.334,0,0.397,0.153C9.13,16.709,9.064,16.873,8.901,16.949L8.901,16.949z M10.073,19.129c-0.104,0.043-0.224,0-0.265-0.104c-0.042-0.097,0-0.216,0.104-0.265c0.103-0.041,0.224,0,0.265,0.105C10.219,18.969,10.177,19.087,10.073,19.129L10.073,19.129z M9.936,16.146c-0.299,0.126-0.627,0-0.763-0.285l0.013,0.002c-0.122-0.288,0-0.623,0.286-0.758c0.284-0.124,0.613,0,0.747,0.285C10.341,15.678,10.22,16.013,9.936,16.146L9.936,16.146z M10.477,12.596c-0.103,0.042-0.225,0-0.263-0.104c-0.044-0.106,0.006-0.227,0.102-0.267c0.104-0.042,0.225,0,0.265,0.105C10.624,12.434,10.581,12.556,10.477,12.596L10.477,12.596z M11.849,14.153c-0.154,0.07-0.336,0-0.397-0.155c-0.074-0.152,0-0.334,0.153-0.397v0.003c0.153-0.074,0.334,0,0.397,0.15C12.071,13.908,12.001,14.09,11.849,14.153L11.849,14.153z"/><path fill="#E5E5E5" d="M17.995,1.74c0.384,0.32,0.576,0.616,0.493,0.827L18.477,2.59v0.012l-0.092,0.103c0,0-0.792,0.701-0.93,1.057l-7.074,18.41c-0.416,1.035-1.403,1.668-2.455,1.668c-0.295,0-0.595-0.05-0.889-0.155L7.01,23.75c0.057,0.027,0.117,0.052,0.177,0.075C7.499,23.944,7.818,24,8.131,24c1.052,0,2.04-0.633,2.456-1.668l7.075-18.41c0.138-0.356,0.93-1.057,0.93-1.057l0.092-0.103V2.751l0.011-0.023C18.791,2.482,18.514,2.12,17.995,1.74L17.995,1.74z"/><linearGradient id="a" x1="-1462.123" x2="-1461.123" y1="-1370.479" y2="-1370.479" gradientTransform="matrix(5.9259 2.2788 -1.2638 10.6852 6940.795 17986.693)" gradientUnits="userSpaceOnUse"><stop offset="0" stop-color="#919191"/><stop offset="1" stop-color="#fff"/></linearGradient><path fill="url(#a)" d="M16.043,0.642l-0.178,0.456c0.877,0.375,1.486,0.841,1.393,1.085c-0.039,0.101-0.192,0.149-0.421,0.149c-0.328,0-0.812-0.098-1.343-0.283l-3.268,8.36c0.212-0.054,0.433-0.124,0.671-0.229c0.896-0.391,1.883-1.527,1.883-1.527L9.668,21.93c-0.292,0.734-1.007,1.196-1.766,1.196c-0.202,0-0.407-0.033-0.608-0.102l-0.1,0.256c0.137,0.177,0.299,0.338,0.483,0.478c-0.209-0.01-0.418-0.055-0.62-0.127l-0.021,0.054c0.294,0.105,0.594,0.155,0.889,0.155c1.051,0,2.039-0.633,2.455-1.668l7.074-18.41c0.138-0.356,0.93-1.057,0.93-1.057l0.092-0.103V2.59l0.011-0.023c0.083-0.211-0.109-0.507-0.493-0.827C17.555,1.374,16.862,0.977,16.043,0.642L16.043,0.642z"/><linearGradient id="b" x1="-1467.597" x2="-1466.597" y1="-1372.457" y2="-1372.457" gradientTransform="matrix(3.5846 1.3785 -.8388 5.8909 4117.886 10122.757)" gradientUnits="userSpaceOnUse"><stop offset="0" stop-color="#900"/><stop offset="1" stop-color="#e80000"/></linearGradient><path fill="url(#b)" d="M9.822,19.12c-0.114,0-0.206-0.092-0.206-0.206s0.092-0.206,0.206-0.206c0.113,0,0.205,0.092,0.205,0.206S9.935,19.12,9.822,19.12L9.822,19.12z M11.579,14.092c-0.17,0-0.308-0.138-0.308-0.309c0-0.171,0.138-0.309,0.308-0.309c0.17,0,0.308,0.138,0.308,0.309C11.887,13.954,11.75,14.092,11.579,14.092L11.579,14.092z M14.779,8.654c0,0-0.988,1.137-1.883,1.527c-0.238,0.105-0.459,0.174-0.671,0.229l-4.93,12.614c0.201,0.069,0.406,0.102,0.608,0.102c0.759,0,1.474-0.462,1.766-1.196L14.779,8.654L14.779,8.654z"/><path fill="#333" d="M17.257,2.183C17.359,1.918,16.626,1.388,15.621,1c-1.006-0.389-1.903-0.488-2.005-0.222c-0.101,0.266,0.631,0.795,1.637,1.184C16.258,2.35,17.155,2.449,17.257,2.183L17.257,2.183z"/><linearGradient id="c" x1="-1462.123" x2="-1461.123" y1="-1369.316" y2="-1369.316" gradientTransform="matrix(5.9259 2.2788 -1.2638 10.6852 6940.795 17986.693)" gradientUnits="userSpaceOnUse"><stop offset="0" stop-color="#b2b2b2"/><stop offset="1" stop-color="#fff"/></linearGradient><path fill="url(#c)" d="M7.194,23.28l-0.137,0.351c0.201,0.072,0.411,0.117,0.62,0.127C7.493,23.617,7.332,23.456,7.194,23.28L7.194,23.28z"/><linearGradient id="d" x1="-1467.597" x2="-1466.597" y1="-1372.822" y2="-1372.822" gradientTransform="matrix(3.5846 1.3785 -.8388 5.8909 4117.886 10122.757)" gradientUnits="userSpaceOnUse"><stop offset="0" stop-color="#cc8080"/><stop offset="1" stop-color="#f48080"/></linearGradient><path fill="url(#d)" d="M11.579,13.474c-0.17,0-0.308,0.138-0.308,0.309c0,0.171,0.138,0.309,0.308,0.309c0.17,0,0.308-0.138,0.308-0.309C11.887,13.612,11.75,13.474,11.579,13.474L11.579,13.474z"/><linearGradient id="e" x1="-1467.597" x2="-1466.597" y1="-1371.888" y2="-1371.888" gradientTransform="matrix(3.5846 1.3785 -.8388 5.8909 4117.886 10122.757)" gradientUnits="userSpaceOnUse"><stop offset="0" stop-color="#cc8080"/><stop offset="1" stop-color="#f48080"/></linearGradient><path fill="url(#e)" d="M9.822,18.708c-0.114,0-0.206,0.092-0.206,0.206s0.092,0.206,0.206,0.206c0.113,0,0.205-0.092,0.205-0.206S9.935,18.708,9.822,18.708L9.822,18.708z"/><path fill="#C7C7C7" d="M6.402,23.357c0.18,0.156,0.384,0.289,0.609,0.393l0.026-0.066c-0.018-0.006-0.037-0.013-0.055-0.02C6.771,23.584,6.577,23.48,6.402,23.357L6.402,23.357z"/><linearGradient id="f" x1="-1462.123" x2="-1461.123" y1="-1370.479" y2="-1370.479" gradientTransform="matrix(5.9259 2.2788 -1.2638 10.6852 6940.795 17986.693)" gradientUnits="userSpaceOnUse"><stop offset="0" stop-color="#7e7e7e"/><stop offset="1" stop-color="#dedede"/></linearGradient><path fill="url(#f)" d="M6.922,22.85c0.076,0.151,0.167,0.295,0.273,0.43l0.1-0.256c-0.024-0.008-0.048-0.017-0.072-0.026C7.116,22.957,7.016,22.907,6.922,22.85L6.922,22.85z M5.286,21.194c-0.005,0.853,0.408,1.666,1.115,2.163c0.176,0.123,0.369,0.227,0.579,0.307c0.018,0.007,0.037,0.014,0.055,0.02l0.021-0.054c-0.029-0.01-0.059-0.021-0.088-0.033C5.94,23.203,5.304,22.233,5.286,21.194L5.286,21.194z M13.365,0c-0.433,0-0.728,0.095-0.803,0.294l-0.012,0.035v0v0.138c0,0,0.026,0.171,0.044,0.402c0.328,1.161,1.095,1.875,1.095,1.875l-3.141,8.198c0.001-0.001,0.002-0.001,0.003-0.002c0.588-0.344,1.096-0.382,1.672-0.53l3.268-8.36c-0.079-0.028-0.16-0.057-0.241-0.088c-1.005-0.389-1.738-0.918-1.637-1.184c0.039-0.101,0.192-0.149,0.421-0.149c0.377,0,0.96,0.13,1.584,0.371c0.083,0.032,0.165,0.065,0.244,0.099l0.178-0.456c-0.061-0.025-0.122-0.049-0.184-0.073C14.897,0.197,13.988,0,13.365,0L13.365,0z"/><linearGradient id="g" x1="-1467.597" x2="-1466.597" y1="-1372.237" y2="-1372.237" gradientTransform="matrix(3.5846 1.3785 -.8388 5.8909 4117.886 10122.757)" gradientUnits="userSpaceOnUse"><stop offset="0" stop-color="#850000"/><stop offset="1" stop-color="#ca0000"/></linearGradient><path fill="url(#g)" d="M9.536,16.131c-0.321,0-0.581-0.262-0.581-0.584c0-0.323,0.26-0.584,0.581-0.584c0.322,0,0.582,0.262,0.582,0.584C10.119,15.869,9.858,16.131,9.536,16.131L9.536,16.131z M12.225,10.41c-0.576,0.148-1.084,0.185-1.672,0.53c-0.001,0.001-0.002,0.001-0.003,0.002l-0.483,1.261c0.035-0.062,0.102-0.103,0.178-0.103c0.114,0,0.206,0.092,0.206,0.206c0,0.114-0.092,0.206-0.206,0.206c-0.113,0-0.205-0.092-0.205-0.206c0-0.015,0.002-0.03,0.005-0.044l-1.562,4.076c0.037-0.016,0.077-0.024,0.119-0.024c0.17,0,0.307,0.139,0.307,0.309c0,0.171-0.138,0.31-0.307,0.31c-0.124,0-0.23-0.073-0.279-0.178l-1.525,3.98c-0.261,0.708-0.202,1.473,0.123,2.116c0.094,0.057,0.195,0.107,0.301,0.148c0.024,0.009,0.048,0.018,0.072,0.026L12.225,10.41L12.225,10.41z"/><path fill="#2C2C2C" d="M14.036,0.628c-0.23,0-0.383,0.048-0.421,0.149c-0.101,0.266,0.631,0.795,1.637,1.184c0.081,0.031,0.161,0.061,0.241,0.088l0.372-0.951C15.785,1.065,15.704,1.032,15.621,1C14.996,0.758,14.413,0.628,14.036,0.628L14.036,0.628z"/><path fill="#DEDEDE" d="M12.503,0.464c0,0,0.148,0.974-0.023,1.409L5.452,20.231c-0.118,0.318-0.171,0.644-0.166,0.964c0.002-0.301,0.056-0.607,0.167-0.906l7.074-18.41c0.1-0.254,0.092-0.69,0.067-1.01C12.558,0.739,12.527,0.604,12.503,0.464L12.503,0.464z"/><linearGradient id="h" x1="-1462.123" x2="-1461.123" y1="-1370.412" y2="-1370.412" gradientTransform="matrix(5.9259 2.2788 -1.2638 10.6852 6940.795 17986.693)" gradientUnits="userSpaceOnUse"><stop offset="0" stop-color="#9b9b9b"/><stop offset="1" stop-color="#dedede"/></linearGradient><path fill="url(#h)" d="M12.595,0.868c0.025,0.321,0.033,0.757-0.067,1.01l-7.074,18.41c-0.111,0.299-0.165,0.605-0.167,0.906c0.018,1.039,0.654,2.009,1.683,2.403c0.029,0.012,0.058,0.023,0.088,0.033l0.137-0.351c-0.105-0.135-0.196-0.279-0.273-0.43c-0.777-0.47-1.154-1.448-0.836-2.298l3.261-8.487c0,0,0.401-0.653,1.203-1.124l3.141-8.198C13.69,2.743,12.923,2.029,12.595,0.868L12.595,0.868z"/><linearGradient id="i" x1="-1467.597" x2="-1466.597" y1="-1372.145" y2="-1372.145" gradientTransform="matrix(3.5846 1.3785 -.8388 5.8909 4117.886 10122.757)" gradientUnits="userSpaceOnUse"><stop offset="0" stop-color="#a04343"/><stop offset="1" stop-color="#d04343"/></linearGradient><path fill="url(#i)" d="M10.55,10.942c-0.802,0.47-1.203,1.124-1.203,1.124l-3.261,8.487c-0.318,0.85,0.059,1.828,0.836,2.298c-0.326-0.643-0.384-1.407-0.123-2.116l1.525-3.98c-0.019-0.04-0.029-0.085-0.029-0.132c0-0.128,0.078-0.238,0.189-0.285l1.562-4.076c0.005-0.021,0.012-0.041,0.023-0.059L10.55,10.942L10.55,10.942z"/><linearGradient id="j" x1="-1467.597" x2="-1466.597" y1="-1372.977" y2="-1372.977" gradientTransform="matrix(3.5846 1.3785 -.8388 5.8909 4117.886 10122.757)" gradientUnits="userSpaceOnUse"><stop offset="0" stop-color="#b26f6f"/><stop offset="1" stop-color="#d46f6f"/></linearGradient><path fill="url(#j)" d="M10.244,12.1c-0.076,0-0.142,0.042-0.178,0.103l-0.023,0.059c-0.003,0.014-0.005,0.029-0.005,0.044c0,0.114,0.092,0.206,0.205,0.206c0.114,0,0.206-0.092,0.206-0.206C10.45,12.192,10.358,12.1,10.244,12.1L10.244,12.1z"/><linearGradient id="k" x1="-1467.597" x2="-1466.597" y1="-1372.977" y2="-1372.977" gradientTransform="matrix(3.5846 1.3785 -.8388 5.8909 4117.886 10122.757)" gradientUnits="userSpaceOnUse"><stop offset="0" stop-color="#c09191"/><stop offset="1" stop-color="#d79191"/></linearGradient><path fill="url(#k)" d="M10.066,12.203c-0.01,0.018-0.018,0.038-0.023,0.059L10.066,12.203L10.066,12.203z"/><linearGradient id="l" x1="-1467.597" x2="-1466.597" y1="-1372.412" y2="-1372.412" gradientTransform="matrix(3.5846 1.3785 -.8388 5.8909 4117.886 10122.757)" gradientUnits="userSpaceOnUse"><stop offset="0" stop-color="#b26f6f"/><stop offset="1" stop-color="#d46f6f"/></linearGradient><path fill="url(#l)" d="M9.536,14.963c-0.321,0-0.581,0.262-0.581,0.584c0,0.322,0.26,0.584,0.581,0.584c0.322,0,0.582-0.262,0.582-0.584C10.119,15.224,9.858,14.963,9.536,14.963L9.536,14.963z"/><linearGradient id="m" x1="-1467.597" x2="-1466.597" y1="-1372.18" y2="-1372.18" gradientTransform="matrix(3.5846 1.3785 -.8388 5.8909 4117.886 10122.757)" gradientUnits="userSpaceOnUse"><stop offset="0" stop-color="#b26f6f"/><stop offset="1" stop-color="#d46f6f"/></linearGradient><path fill="url(#m)" d="M8.602,16.314c-0.042,0-0.083,0.009-0.119,0.024l-0.16,0.417c0.049,0.105,0.155,0.178,0.279,0.178c0.17,0,0.307-0.139,0.307-0.31C8.909,16.453,8.771,16.314,8.602,16.314L8.602,16.314z"/><linearGradient id="n" x1="-1467.597" x2="-1466.597" y1="-1372.181" y2="-1372.181" gradientTransform="matrix(3.5846 1.3785 -.8388 5.8909 4117.886 10122.757)" gradientUnits="userSpaceOnUse"><stop offset="0" stop-color="#c09191"/><stop offset="1" stop-color="#d79191"/></linearGradient><path fill="url(#n)" d="M8.482,16.338c-0.111,0.047-0.189,0.157-0.189,0.285c0,0.047,0.01,0.092,0.029,0.132L8.482,16.338L8.482,16.338z"/></svg>